<svg width="2092" height="2066" viewBox="0 0 2092 2066" fill="none" xmlns="http://www.w3.org/2000/svg">
<path fill-rule="evenodd" clip-rule="evenodd" d="M1148.12 1226.42C1167.01 1325.59 1201.63 1423.9 1173.32 1520.79C1146.07 1614.04 1073.11 1683.46 996.941 1743.73C924.563 1801 841.971 1840.37 750.854 1855.08C654.583 1870.63 559.948 1857.62 466.607 1829.35C345.784 1792.75 175.534 1787.53 134.091 1668.25C91.8167 1546.59 224.754 1435.92 291.677 1325.9C336.585 1252.08 398.639 1198.2 458.138 1135.54C525.132 1064.99 574.37 979.448 661.593 936.365C782.211 876.786 929.17 776.885 1044.75 845.789C1160.5 914.794 1122.91 1094.03 1148.12 1226.42Z" fill="#F3FAFF"/>
<path fill-rule="evenodd" clip-rule="evenodd" d="M1959.82 728.249C1996.75 879.917 1977.8 1034.71 1911.77 1176.2C1850.27 1308 1730.39 1385.11 1613.13 1471.19C1438.44 1599.43 1283.73 1849.39 1075.27 1790.28C867.991 1731.5 872.579 1436.9 790.255 1237.85C710.687 1045.46 551.154 864.584 609.791 664.782C671.076 455.955 877.957 328.558 1080.51 248.816C1275.2 172.171 1500.58 141.656 1684.23 241.79C1854.36 334.548 1913.98 540.008 1959.82 728.249Z" fill="#E4F3FB"/>
<path fill-rule="evenodd" clip-rule="evenodd" d="M1382.79 561.669C1472.23 642.46 1527.35 749.515 1546.64 868.516C1564.61 979.37 1521.56 1080.66 1484.08 1186.54C1428.25 1344.27 1438.02 1571.04 1279.27 1623.82C1121.41 1676.31 996.406 1486.24 857.408 1394.91C723.063 1306.63 542.665 1260.43 493.334 1107.41C441.775 947.477 518.531 776.303 613.218 637.433C704.227 503.957 834.867 386.601 995.6 370.777C1144.49 356.118 1271.78 461.397 1382.79 561.669Z" fill="#91D9FF" fill-opacity="0.2"/>
<path d="M576.299 1395.91C567.323 1395.91 558.266 1395.26 549.37 1396.01C538.244 1396.95 530.074 1393.08 524.188 1383.79V1303.35C530.262 1294.29 538.62 1290.99 549.585 1291.17C579.282 1291.68 608.979 1291.17 638.676 1291.47C645.018 1291.52 647.491 1289.99 647.222 1283.19C646.577 1266.53 646.658 1249.87 646.443 1233.2C647.625 1232.37 648.7 1232.48 649.668 1233.53C654.129 1244.84 651.576 1256.67 651.844 1268.25C652.328 1290.05 650.608 1288.08 672.216 1288.16C682.589 1288.22 692.963 1288.24 703.337 1288.16C715.216 1288.06 715.968 1287.33 716.129 1275.75C716.264 1265.72 716.076 1255.67 716.21 1245.65C716.264 1241.35 715.888 1236.89 718.817 1233.12C720.08 1232.37 721.209 1232.53 722.203 1233.63C726.718 1244.63 724.192 1256.13 724.434 1267.39C724.864 1288.03 724.568 1288.03 745.504 1288.06C941.745 1288.06 1137.96 1288.06 1334.2 1288.06C1353.52 1288.06 1353.23 1288.06 1353.63 1268.81C1353.87 1257.2 1351.59 1245.38 1355.57 1233.98C1356.35 1232.8 1357.42 1232.34 1358.82 1232.67C1362.18 1236.16 1361.77 1240.65 1361.83 1244.95C1361.99 1255.62 1362.15 1266.31 1361.83 1276.98C1361.59 1284.97 1364.41 1288.54 1372.79 1288.3C1386.79 1287.9 1400.85 1287.92 1414.85 1288.3C1422.94 1288.51 1426.41 1285.5 1426.14 1277.23C1425.79 1266.88 1425.98 1256.53 1426.11 1246.19C1426.17 1241.89 1425.79 1237.45 1428.34 1233.55C1429.34 1232.51 1430.41 1232.4 1431.6 1233.23C1431.38 1250.65 1431.35 1268.06 1430.87 1285.45C1430.66 1292.76 1435.55 1291.34 1439.66 1291.34C1469.81 1291.34 1499.99 1291.28 1530.15 1291.31C1547.29 1291.31 1553.85 1297.87 1553.85 1314.69C1553.85 1335.14 1553.9 1355.57 1553.85 1376.02C1553.8 1388.6 1546.65 1395.72 1533.96 1395.88C1523.24 1396.01 1512.52 1395.93 1501.79 1395.93C1500.74 1396.74 1499.62 1397.41 1498.43 1397.95C1475.78 1400.29 1453.07 1398.78 1430.39 1398.78C1427.65 1398.78 1425.17 1397.71 1423.05 1395.93H655.043C652.919 1397.71 650.447 1398.78 647.706 1398.78C625.023 1398.78 602.314 1400.29 579.658 1397.98C578.449 1397.44 577.347 1396.74 576.299 1395.93V1395.91Z" fill="#BB7C63"/>
<path d="M1435.2 1013.47C1430.22 1013.66 1430.74 1017.29 1430.74 1020.6C1430.74 1033.58 1431 1046.56 1430.63 1059.54C1430.44 1065.53 1432.99 1066.55 1438.29 1066.69C1453.5 1067.09 1468.79 1065.02 1483.95 1067.79C1482.44 1069.83 1480.24 1070.69 1477.87 1070.83C1463.58 1071.69 1449.25 1071.69 1434.93 1070.83C1432.24 1070.66 1429.74 1069.62 1428.02 1067.28C1423.99 1055.59 1426.46 1043.49 1426.06 1031.59C1425.58 1017.21 1425.71 1016.97 1411.52 1016.94C1398.51 1016.91 1385.5 1017.16 1372.5 1016.86C1364.84 1016.7 1361.59 1019.74 1361.8 1027.42C1362.04 1036.43 1361.91 1045.43 1361.8 1054.43C1361.75 1058.76 1362.04 1063.14 1359.87 1067.17C1357.66 1070.21 1354.36 1070.75 1351 1071.12C1348.34 1071.42 1345.65 1071.36 1342.96 1071.39C1140.43 1071.39 937.902 1071.39 735.372 1071.34C729.486 1071.34 723.171 1072.49 718.306 1067.52C714.759 1060.61 716.425 1053.12 716.129 1045.89C715.861 1039.22 715.995 1032.53 716.049 1025.86C716.102 1019.52 713.119 1016.91 706.884 1016.94C691.539 1017.02 676.166 1017 660.821 1016.94C654.344 1016.94 651.979 1020.11 651.979 1026.21C651.979 1035.22 652.032 1044.25 651.925 1053.25C651.871 1057.9 652.274 1062.63 650.071 1067.01C649.667 1067.55 649.291 1068.41 648.781 1068.51C630.452 1072.57 612.177 1074.02 593.982 1067.79C608.871 1065.1 623.894 1066.88 638.837 1066.74C645.341 1066.69 647.571 1064.89 647.329 1058.28C646.846 1046.26 646.872 1034.2 647.329 1022.18C647.571 1015.81 645.905 1013.37 639.079 1013.61C625.399 1014.12 611.666 1013.85 597.96 1013.74C586.001 1013.64 578.744 1007.21 578.664 995.603C578.395 951.824 578.476 908.044 578.449 864.238C578.449 862.222 578.502 860.207 580.357 858.809C584.711 868.377 593.176 867.786 601.696 867.786C867.086 867.732 1132.48 867.732 1397.87 867.759C1403.89 867.759 1409.93 867.463 1415.95 868.189C1427.62 869.559 1433.34 874.531 1436.46 885.738C1437.8 890.629 1438.29 895.601 1438.29 900.654C1438.37 933.817 1438.37 967.008 1438.29 1000.17C1438.29 1004.79 1438.77 1009.66 1435.12 1013.47H1435.2Z" fill="#A96A51"/>
<path d="M1359.03 1233.04C1358.15 1233.1 1357.26 1233.15 1356.37 1233.2C1350.84 1237.69 1344.2 1236.21 1337.99 1236.21C1181.23 1236.3 1024.44 1236.3 867.677 1236.27C824.14 1236.27 780.576 1236.32 737.038 1236.21C731.771 1236.21 726.207 1237.16 721.666 1233.18C720.779 1233.12 719.892 1233.07 719.005 1233.02C695.704 1238.12 672.404 1238.15 649.13 1233.02C648.243 1233.1 647.383 1233.15 646.496 1233.23C630.076 1233.23 613.655 1233.42 597.234 1233.18C585.517 1233.02 578.879 1226.86 578.798 1215.33C578.502 1171.77 578.583 1128.2 578.529 1084.64C578.529 1082.3 578.502 1079.91 580.545 1078.19C584.926 1087.89 593.579 1086.95 601.991 1086.95C867.677 1086.92 1133.34 1086.95 1399.02 1086.95C1405.04 1086.95 1411.12 1086.57 1417.08 1087.54C1427.32 1089.21 1434.18 1094.66 1436.43 1105.23C1437.7 1111.17 1438.42 1117.1 1438.45 1123.15C1438.45 1154.97 1438.5 1186.82 1438.45 1218.64C1438.45 1223.61 1438.91 1228.8 1435.22 1232.99C1434.01 1233.07 1432.8 1233.15 1431.62 1233.23C1430.74 1233.15 1429.88 1233.1 1428.99 1233.02C1405.69 1238.18 1382.39 1238.15 1359.11 1233.02L1359.03 1233.04Z" fill="#A96A51"/>
<path d="M1435.2 1013.48C1435.2 976.629 1435.17 939.784 1435.14 902.938C1435.14 900.6 1435.41 898.208 1435.09 895.897C1432.75 878.697 1431.49 870.93 1409.26 870.93C1137.29 871.038 865.286 870.957 593.311 871.199C583.663 871.199 578.449 869.506 580.438 858.809C582.399 850.613 588.796 848.167 596.025 847.146C598.981 846.716 602.045 847.038 605.055 847.038C894.418 847.038 1183.75 847.038 1473.12 847.038C1494.54 847.038 1499.4 852.01 1499.4 873.779C1499.4 912.963 1499.4 952.146 1499.4 991.33C1499.4 1007.89 1493.6 1013.8 1477.36 1013.77C1463.31 1013.74 1449.25 1013.58 1435.2 1013.48Z" fill="#935B44"/>
<path d="M1435.14 1232.99C1435.14 1197.49 1435.14 1161.99 1435.14 1126.48C1435.14 1119.79 1434.9 1113.24 1433.4 1106.62C1430.84 1095.36 1425.98 1090.71 1414.37 1090.26C1411.68 1090.15 1409.02 1090.26 1406.33 1090.26C1135.06 1090.26 863.754 1090.2 592.478 1090.47C582.749 1090.47 578.906 1087.81 580.518 1078.24C582.292 1071.2 587.183 1068.25 594.036 1067.84C610.323 1067.98 626.609 1068.11 642.868 1068.25C645.233 1068.25 647.544 1068.11 649.13 1065.96C672.377 1061.02 695.624 1061.07 718.898 1065.94C721.746 1069.38 725.67 1068.22 729.218 1068.22C935.725 1068.27 1142.26 1068.27 1348.77 1068.22C1352.29 1068.22 1356.24 1069.4 1359.09 1065.94C1382.33 1061.1 1405.58 1061.02 1428.85 1065.96C1432.35 1069.81 1436.97 1068.14 1441.11 1068.17C1455.41 1068.25 1469.68 1067.98 1483.98 1067.84C1494.73 1068.78 1499.24 1075.77 1499.32 1085.42C1499.59 1128.63 1499.56 1171.85 1499.37 1215.06C1499.32 1226.78 1493.06 1233.1 1481.37 1233.31C1465.97 1233.58 1450.57 1233.15 1435.17 1233.04L1435.14 1232.99Z" fill="#935B44"/>
<path d="M576.299 1395.91L578.529 1395.99C581.996 1399.86 581.566 1404.67 581.62 1409.32C581.754 1421.68 581.862 1434.04 581.62 1446.4C581.459 1454.01 584.308 1457.26 592.128 1457.13C608.495 1456.86 624.889 1456.97 641.256 1457.13C645.851 1457.18 650.716 1456.56 654.532 1460.22C654.639 1509.43 654.747 1558.66 654.828 1607.87C654.828 1616.82 650.098 1621.9 641.417 1622.11C624.351 1622.52 607.259 1622.6 590.193 1622.11C580.464 1621.82 576.756 1616.85 576.729 1605.91C576.621 1578.79 576.729 1551.65 576.675 1524.53C576.594 1481.66 576.433 1438.8 576.299 1395.96V1395.91Z" fill="#925B44"/>
<path d="M1499.48 1395.96C1500.23 1395.96 1500.99 1395.93 1501.71 1395.91C1501.58 1464.55 1501.44 1533.21 1501.31 1601.85C1501.28 1619.1 1498.11 1622.3 1480.78 1622.33C1466.72 1622.35 1452.64 1622.54 1438.58 1622.25C1427.91 1622.01 1423.26 1617.73 1423.26 1607.87C1423.21 1558.66 1423.4 1509.43 1423.51 1460.22C1427.32 1456.56 1432.19 1457.18 1436.78 1457.13C1453.15 1456.97 1469.54 1456.89 1485.91 1457.13C1493.76 1457.26 1496.58 1453.98 1496.42 1446.38C1496.15 1434.01 1496.28 1421.65 1496.42 1409.29C1496.47 1404.64 1496.07 1399.83 1499.51 1395.96H1499.48Z" fill="#925B44"/>
<path d="M654.505 1460.19C632.468 1460.19 610.403 1459.84 588.366 1460.41C580.196 1460.62 578.099 1457.85 578.314 1450.11C578.825 1432.08 578.503 1414.05 578.503 1395.99C604.007 1395.99 629.511 1395.93 655.016 1395.91C654.828 1417.33 654.666 1438.77 654.478 1460.19H654.505Z" fill="#87523E"/>
<path d="M1499.48 1395.96C1499.48 1413.99 1499.16 1432.05 1499.67 1450.09C1499.89 1457.8 1497.84 1460.62 1489.65 1460.41C1467.61 1459.84 1445.54 1460.19 1423.48 1460.19C1423.29 1438.77 1423.13 1417.33 1422.94 1395.91C1448.45 1395.91 1473.95 1395.93 1499.46 1395.96H1499.48Z" fill="#86523E"/>
<path d="M721.639 1233.21C933.199 1233.21 1144.79 1233.21 1356.35 1233.21C1356.59 1250.59 1356.78 1267.98 1357.13 1285.37C1357.21 1289.48 1355.94 1291.74 1351.45 1291.36C1349.47 1291.2 1347.45 1291.36 1345.43 1291.36C1141.13 1291.36 936.827 1291.28 732.523 1291.6C722.526 1291.6 719.973 1288.81 720.671 1279.32C721.8 1264 719.892 1248.55 721.612 1233.18L721.639 1233.21Z" fill="#FEFEFE"/>
<path d="M649.076 1233.02C672.377 1233.02 695.677 1233.02 718.978 1233.02C719.005 1249.71 718.897 1266.37 719.166 1283.06C719.274 1288.7 718.145 1291.58 711.561 1291.44C693.232 1291.07 674.876 1291.07 656.521 1291.44C649.936 1291.58 648.807 1288.67 648.915 1283.03C649.184 1266.37 649.076 1249.68 649.103 1232.99L649.076 1233.02Z" fill="#7C4B37"/>
<path d="M1359.03 1233.04C1382.33 1233.04 1405.63 1233.04 1428.94 1233.04C1428.96 1249.73 1428.83 1266.4 1429.12 1283.08C1429.23 1288.73 1428.08 1291.63 1421.52 1291.5C1403.19 1291.12 1384.81 1291.12 1366.48 1291.5C1359.89 1291.63 1358.76 1288.76 1358.87 1283.11C1359.17 1266.45 1359.03 1249.76 1359.06 1233.07L1359.03 1233.04Z" fill="#7C4B37"/>
<path d="M1038.93 1013.77C1141.4 1013.77 1243.9 1013.88 1346.38 1013.58C1354.98 1013.58 1358.23 1015.28 1357.53 1024.47C1356.64 1036.13 1357.13 1047.9 1357.39 1059.62C1357.5 1064.73 1355.92 1067.2 1350.57 1066.61C1348.58 1066.39 1346.56 1066.61 1344.55 1066.61C1140.92 1066.61 937.284 1066.61 733.679 1066.61C719.166 1066.61 720.859 1068.27 720.752 1053.81C720.671 1043.44 721.155 1033.04 720.591 1022.67C720.214 1015.65 722.445 1013.64 729.513 1013.69C778.076 1013.99 826.639 1013.85 875.203 1013.85C929.786 1013.85 984.396 1013.85 1038.98 1013.85L1038.93 1013.77Z" fill="#FEFEFE"/>
<path d="M718.898 1065.88C695.651 1065.88 672.404 1065.88 649.13 1065.91C649.103 1051.18 649.291 1036.48 648.888 1021.75C648.727 1015.65 650.743 1013.56 656.924 1013.66C674.984 1013.99 693.044 1013.99 711.104 1013.66C717.231 1013.56 719.301 1015.57 719.139 1021.73C718.736 1036.43 718.924 1051.15 718.871 1065.88H718.898Z" fill="#7C4B37"/>
<path d="M1428.85 1065.91C1405.61 1065.91 1382.36 1065.91 1359.09 1065.88C1359.03 1051.15 1359.22 1036.45 1358.82 1021.73C1358.66 1015.57 1360.73 1013.56 1366.85 1013.66C1384.91 1013.99 1402.97 1013.99 1421.03 1013.66C1427.19 1013.56 1429.2 1015.65 1429.07 1021.75C1428.69 1036.45 1428.88 1051.18 1428.83 1065.91H1428.85Z" fill="#7C4B37"/>
<path d="M984.611 648.365L927.268 672.243C927.268 672.243 955.94 727.959 1013.28 732.735C1070.63 737.51 1103.25 715.495 1114.81 696.249C1126.38 677.003 1129.56 662.692 1129.56 662.692L1073.81 638.813L984.611 648.365Z" fill="#F57373"/>
<path d="M1020.45 499.523C1020.45 499.523 950.365 510.667 955.143 563.199C959.922 615.731 966.293 642.793 979.036 666.671C991.779 690.55 998.151 708.745 1020.45 711.579C1042.75 714.412 1061.87 711.244 1079.39 677.815C1096.91 644.385 1106.47 639.609 1112.84 585.485C1119.21 531.361 1111.24 502.707 1073.02 497.932C1034.79 493.156 1020.45 499.523 1020.45 499.523Z" fill="#F69586"/>
<path d="M961.515 563.199C961.515 563.199 945.586 561.607 947.179 572.75C948.772 583.893 954.904 604.27 954.904 604.27C954.904 604.27 956.736 614.139 964.7 610.956L961.515 563.199Z" fill="#F69586"/>
<path d="M1111.08 566.383C1111.08 566.383 1126.18 564.791 1124.69 575.934C1123.19 587.077 1117.36 607.453 1117.36 607.453C1117.36 607.453 1115.62 617.323 1108.07 614.139L1111.1 566.383H1111.08Z" fill="#F69586"/>
<path d="M1029.21 584.689C1029.21 584.689 1010.1 583.098 1004.52 575.934C996.876 566.112 991.779 547.28 991.779 547.28C991.779 547.28 988.593 537.729 983.815 539.321C979.036 540.913 974.258 540.913 969.479 552.056C964.7 563.199 957.708 589.242 958.807 596.119C958.807 596.119 951.289 567.815 948.437 563.119C945.586 558.423 940.808 548.872 943.993 542.504C947.179 536.137 942.4 534.545 943.993 524.994C945.586 515.442 940.808 512.259 950.365 501.115C959.922 489.972 953.55 480.421 963.108 472.462C972.665 464.502 966.293 461.318 983.815 454.951C1001.34 448.583 993.372 440.624 1017.26 442.216C1041.16 443.808 1042.75 434.256 1061.86 442.216C1080.98 450.175 1092.13 440.624 1100.09 451.767C1108.06 462.91 1127.17 470.87 1127.17 485.197C1127.17 499.524 1139.92 502.707 1136.73 518.626C1133.54 534.545 1136.73 542.504 1128.77 553.648C1120.8 564.791 1125.58 574.342 1119.21 583.893C1112.84 593.445 1110.75 600.815 1110.75 600.815C1110.75 600.815 1109.65 564.791 1106.47 555.24C1103.28 545.688 1101.69 534.545 1095.32 536.137C1088.94 537.729 1084.17 537.729 1080.98 548.872C1077.79 560.015 1070.88 580.837 1061.07 583.098C1040.36 587.873 1029.21 584.689 1029.21 584.689Z" fill="#010101"/>
<path d="M959.922 652.344C959.922 652.344 967.886 719.204 1030.01 719.204C1092.13 719.204 1113.01 652.344 1113.01 652.344C1113.01 652.344 1141.51 665.08 1176.55 680.998C1211.59 696.917 1239.31 712.39 1239.31 712.39C1239.31 712.39 1243.99 716.02 1243.72 719.204C1243.45 722.387 1243.45 717.612 1248.23 722.387C1253.01 727.163 1292.83 817.901 1296.02 838.595C1299.2 859.29 1326.28 910.23 1326.28 910.23C1326.28 910.23 1331.06 913.414 1324.69 916.597C1318.32 919.781 1297.61 932.516 1283.27 932.516C1268.94 932.516 1235.49 946.843 1235.49 946.843L824.529 911.822C824.529 911.822 810.193 903.862 792.671 902.27C775.15 900.679 770.371 900.679 770.371 900.679C770.371 900.679 764 900.679 764 894.311C764 887.944 765.593 886.352 771.964 867.249C778.336 848.146 799.043 765.368 799.043 765.368C799.043 765.368 816.564 712.836 834.086 701.693C851.607 690.55 959.922 652.344 959.922 652.344Z" fill="#EDCBB7"/>
<path d="M1303.98 910.23C1303.98 910.23 1313.54 1016.89 1310.35 1028.03C1307.17 1039.17 1311.94 1047.13 1225.93 1088.52L1229.12 922.965L1303.98 910.23Z" fill="#F57373"/>
<path d="M776.743 894.311C776.743 894.311 768.779 1005.74 768.779 1020.07C768.779 1034.4 770.371 1045.54 837.272 1080.56L838.864 884.76L776.743 894.311Z" fill="#F57373"/>
<path d="M830.9 900.679H1239.41C1239.41 900.679 1250.11 899.787 1250.11 911.376C1250.11 922.965 1241.86 1136.28 1241.86 1136.28C1241.86 1136.28 1245.04 1154.38 1225.93 1154.38C1206.82 1154.38 838.865 1152.69 838.865 1152.69C838.865 1152.69 827.715 1155.38 827.715 1137.87C827.715 1120.36 821.327 910.23 821.327 910.23C821.327 910.23 819.75 900.679 830.9 900.679Z" fill="#606060"/>
<path d="M1214.78 1145.83C1214.78 1145.83 1240.85 1160.49 1250.11 1184.21C1259.36 1207.93 1248.23 1207.91 1254.6 1223.83C1260.97 1239.75 1246.64 1312.98 1246.64 1312.98C1246.64 1312.98 1224.34 1335.26 1192.48 1328.9C1160.62 1322.53 1122.39 1309.79 1095.31 1306.61C1068.24 1303.43 1041.16 1298.65 1041.16 1298.65C1041.16 1298.65 1045.94 1303.43 1023.64 1306.61C1001.34 1309.79 979.036 1312.98 943.993 1305.02C908.95 1297.06 821.247 1281.86 821.247 1281.86C821.247 1281.86 814.971 1258.85 808.6 1252.49C802.228 1246.12 805.414 1249 808.6 1234.04C811.786 1219.07 808.6 1207.91 816.564 1196.77C824.529 1185.63 859.571 1141.05 859.571 1141.05L1214.78 1145.83Z" fill="#2685C3"/>
<path d="M1225.93 1730.85C1225.93 1730.85 1233.89 1737.21 1233.89 1746.77C1233.89 1756.32 1230.71 1772.24 1230.71 1772.24C1230.71 1772.24 1233.89 1773.83 1222.74 1777.01C1211.59 1780.2 1188.99 1785.45 1166.85 1783.62C1144.71 1781.79 1147.88 1784.97 1136.73 1777.01C1125.58 1769.05 1119.21 1766.06 1119.21 1754.03C1119.21 1741.99 1120.8 1732.44 1122.39 1722.89C1123.99 1713.34 1119.21 1700.6 1116.02 1694.23C1112.84 1687.87 1103.28 1673.54 1101.69 1665.58C1100.09 1657.62 1096.33 1645.08 1107.77 1636.23C1107.77 1636.23 1136.73 1686.27 1135.14 1706.97C1133.54 1727.66 1122.39 1751.54 1146.29 1756.32C1170.18 1761.09 1203.63 1759.5 1211.59 1751.54C1219.56 1743.58 1225.93 1730.85 1225.93 1730.85Z" fill="#4D4D4D"/>
<path d="M1122.39 1597.13L1119.21 1617.82C1119.21 1617.82 1125.58 1632.15 1154.25 1635.33C1182.92 1638.52 1192.48 1632.15 1192.48 1632.15L1194.07 1601.9L1122.39 1597.13Z" fill="#F57373"/>
<path d="M1117.62 1605.09C1117.62 1605.09 1114.43 1619.41 1111.24 1624.19C1108.06 1628.97 1101.69 1640.11 1106.47 1654.44C1111.24 1668.76 1128.77 1692.64 1127.17 1710.15C1125.58 1727.66 1122.39 1745.17 1130.36 1753.13C1138.32 1761.09 1146.29 1769.05 1162.22 1767.46C1178.14 1765.87 1195.67 1762.68 1205.22 1762.68C1214.78 1762.68 1222.74 1761.09 1225.93 1753.13C1229.12 1745.17 1230.71 1723.83 1225.93 1707.43C1221.15 1691.03 1208.41 1667.17 1205.22 1651.25C1202.04 1635.33 1198.85 1619.41 1195.67 1614.64C1192.48 1609.86 1190.89 1638.52 1190.89 1638.52H1151.07C1151.07 1638.52 1144.69 1622.6 1136.73 1621.01C1128.77 1619.41 1117.62 1614.64 1117.62 1605.09Z" fill="#006F66"/>
<path d="M1194.07 1701.3C1194.07 1701.3 1179.43 1705.19 1164.45 1701.3C1164.45 1701.3 1141.51 1636.93 1141.51 1628.97C1141.51 1621.01 1141.51 1617.82 1151.07 1614.64C1160.62 1611.46 1184.52 1611.46 1190.89 1617.82C1197.26 1624.19 1195.67 1627.37 1195.67 1635.33C1195.67 1643.29 1194.07 1701.3 1194.07 1701.3Z" fill="#008278"/>
<path d="M1205.22 1141.85C1205.22 1141.85 1173.37 1137.07 1147.88 1157.77C1122.39 1178.46 1133.54 1186.42 1128.77 1195.97C1123.99 1205.52 1119.21 1210.3 1122.39 1218.26C1125.58 1226.22 1127.17 1240.55 1123.99 1248.51C1120.8 1256.47 1120.8 1312.18 1117.62 1321.73C1114.43 1331.28 1104.87 1351.98 1111.24 1377.45C1117.62 1402.92 1128.77 1439.53 1122.39 1452.27C1116.02 1465 1109.65 1498.43 1114.43 1512.76C1119.21 1527.09 1130.36 1530.27 1123.99 1539.82C1117.62 1549.37 1116.02 1597.13 1116.02 1597.13C1116.02 1597.13 1120.8 1606.68 1125.58 1611.46C1130.36 1616.23 1155.84 1605.09 1173.37 1608.27C1190.89 1611.46 1194.07 1613.05 1198.85 1609.86C1203.63 1606.68 1210 1600.31 1206.82 1593.94C1203.63 1587.58 1213.19 1587.58 1210 1578.03C1206.82 1568.47 1217.97 1550.96 1217.97 1550.96C1217.97 1550.96 1222.74 1544.6 1224.34 1527.09C1225.93 1509.57 1249.82 1366.31 1249.82 1366.31C1249.82 1366.31 1257.79 1285.12 1257.79 1261.24C1257.79 1237.36 1268.94 1234.18 1264.16 1224.63C1259.38 1215.08 1262.57 1181.65 1251.42 1168.91C1240.27 1156.18 1235.49 1146.62 1205.22 1141.85Z" fill="#54A7DD"/>
<path d="M836.523 1730.85C836.523 1730.85 828.145 1737.21 828.145 1746.77C828.145 1756.32 831.49 1772.24 831.49 1772.24C831.49 1772.24 828.145 1773.83 839.868 1777.01C851.591 1780.2 875.357 1785.45 898.66 1783.62C921.964 1781.79 918.603 1784.97 930.342 1777.01C942.082 1769.05 948.772 1766.06 948.772 1754.03C948.772 1741.99 947.099 1732.44 945.427 1722.89C943.754 1713.34 948.772 1700.6 952.133 1694.23C955.494 1687.87 965.529 1673.54 967.217 1665.58C968.906 1657.62 972.856 1645.08 960.814 1636.23C960.814 1636.23 930.358 1686.27 932.031 1706.97C933.703 1727.66 945.427 1751.54 920.307 1756.32C895.188 1761.09 859.986 1759.5 851.623 1751.54C843.261 1743.58 836.539 1730.85 836.539 1730.85H836.523Z" fill="#4D4D4D"/>
<path d="M945.427 1597.13L948.772 1617.82C948.772 1617.82 942.066 1632.15 911.913 1635.33C881.76 1638.52 871.709 1632.15 871.709 1632.15L870.037 1601.9L945.427 1597.13Z" fill="#F57373"/>
<path d="M950.444 1605.09C950.444 1605.09 953.789 1619.41 957.15 1624.19C960.511 1628.97 967.201 1640.11 962.184 1654.44C957.166 1668.76 938.721 1692.64 940.409 1710.15C942.082 1727.66 945.443 1745.17 937.064 1753.13C928.686 1761.09 920.307 1769.05 903.551 1767.46C886.794 1765.87 868.364 1762.68 858.313 1762.68C848.262 1762.68 839.884 1761.09 836.539 1753.13C833.194 1745.17 831.505 1723.83 836.539 1707.43C841.572 1691.03 854.968 1667.17 858.313 1651.25C861.658 1635.33 865.019 1619.41 868.364 1614.64C871.709 1609.86 873.398 1638.52 873.398 1638.52H915.29C915.29 1638.52 921.996 1622.6 930.374 1621.01C938.753 1619.41 950.476 1614.64 950.476 1605.09H950.444Z" fill="#006F66"/>
<path d="M870.037 1701.3C870.037 1701.3 885.44 1705.19 901.193 1701.3C901.193 1701.3 925.325 1636.93 925.325 1628.97C925.325 1621.01 925.325 1617.82 915.274 1614.64C905.223 1611.46 880.088 1611.46 873.382 1617.82C866.676 1624.19 868.348 1627.37 868.348 1635.33C868.348 1643.29 870.021 1701.3 870.021 1701.3H870.037Z" fill="#008278"/>
<path d="M858.297 1141.85C858.297 1141.85 891.811 1137.07 918.619 1157.77C945.427 1178.46 933.703 1186.42 938.721 1195.97C943.738 1205.52 948.772 1210.3 945.427 1218.26C942.082 1226.22 940.393 1240.55 943.754 1248.51C947.115 1256.47 947.099 1312.18 950.46 1321.73C953.821 1331.28 963.856 1351.98 957.166 1377.45C950.46 1402.92 938.737 1439.53 945.443 1452.27C952.149 1465 958.839 1498.43 953.821 1512.76C948.804 1527.09 937.064 1530.27 943.77 1539.82C950.476 1549.37 952.149 1597.13 952.149 1597.13C952.149 1597.13 947.115 1606.68 942.098 1611.46C937.08 1616.23 910.272 1605.09 891.843 1608.27C873.414 1611.46 870.069 1613.05 865.035 1609.86C860.002 1606.68 853.312 1600.31 856.657 1593.94C860.002 1587.58 849.951 1587.58 853.312 1578.03C856.673 1568.47 844.933 1550.96 844.933 1550.96C844.933 1550.96 839.9 1544.6 838.227 1527.09C836.555 1509.57 811.42 1366.31 811.42 1366.31C811.42 1366.31 803.041 1285.12 803.041 1261.24C803.041 1237.36 791.318 1234.18 796.335 1224.63C801.353 1215.08 798.008 1181.65 809.731 1168.91C821.455 1156.18 826.488 1146.62 858.313 1141.85H858.297Z" fill="#54A7DD"/>
</svg>
